<?xml version="1.0" encoding="UTF-8" standalone="no"?>
<!-- Created with Inkscape (http://www.inkscape.org/) -->

<svg
   xmlns:dc="http://purl.org/dc/elements/1.1/"
   xmlns:cc="http://creativecommons.org/ns#"
   xmlns:rdf="http://www.w3.org/1999/02/22-rdf-syntax-ns#"
   xmlns:svg="http://www.w3.org/2000/svg"
   xmlns="http://www.w3.org/2000/svg"
   xmlns:sodipodi="http://sodipodi.sourceforge.net/DTD/sodipodi-0.dtd"
   xmlns:inkscape="http://www.inkscape.org/namespaces/inkscape"
   width="290.00034"
   height="108.03672"
   id="svg2"
   version="1.1"
   inkscape:version="0.48.4 r9939"
   sodipodi:docname="New document 1">
  <defs
     id="defs4" />
  <sodipodi:namedview
     id="base"
     pagecolor="#ffffff"
     bordercolor="#666666"
     borderopacity="1.0"
     inkscape:pageopacity="0.0"
     inkscape:pageshadow="2"
     inkscape:zoom="1.979899"
     inkscape:cx="238.30636"
     inkscape:cy="145.87059"
     inkscape:document-units="px"
     inkscape:current-layer="layer1"
     showgrid="false"
     fit-margin-top="0"
     fit-margin-left="0"
     fit-margin-right="0"
     fit-margin-bottom="0"
     inkscape:window-width="1863"
     inkscape:window-height="1056"
     inkscape:window-x="57"
     inkscape:window-y="24"
     inkscape:window-maximized="1" />
  <metadata
     id="metadata7">
    <rdf:RDF>
      <cc:Work
         rdf:about="">
        <dc:format>image/svg+xml</dc:format>
        <dc:type
           rdf:resource="http://purl.org/dc/dcmitype/StillImage" />
        <dc:title></dc:title>
      </cc:Work>
    </rdf:RDF>
  </metadata>
  <g
     inkscape:label="Layer 1"
     inkscape:groupmode="layer"
     id="layer1"
     transform="translate(-297.29441,-508.36511)">
    <g
       id="g3867"
       transform="matrix(-0.41905398,-0.90796132,-0.90796132,0.41905398,1082.7096,567.86264)">
      <path
         sodipodi:nodetypes="sssssssssssssscssscsssscssssssscs"
         style="fill:#000000;fill-opacity:1"
         d="m 240.1803,624.76498 c -8.31771,-3.27596 -13.65069,-14.16113 -9,-18.36995 2.70111,-2.44447 2.55976,-3.06963 -1.5,-6.63414 -4.4131,-3.87476 -4.4131,-6.06762 0,-9.43366 1.925,-1.46827 3.5,-3.23776 3.5,-3.9322 0,-0.69444 -1.575,-2.46393 -3.5,-3.9322 -4.41547,-3.36784 -4.41547,-5.68624 0,-9.70423 4.35132,-3.95961 4.35131,-4.68426 -3e-5,-8.1562 -4.42157,-3.52798 -4.42156,-5.90266 3e-5,-9.27517 1.925,-1.46827 3.5,-3.23776 3.5,-3.9322 0,-0.69444 -1.575,-2.46393 -3.5,-3.9322 -4.40198,-3.35756 -4.40198,-5.30123 0,-9.5678 4.16986,-4.04159 4.25067,-4.62168 1,-7.17866 -2.23605,-1.75888 -2.5,-2.69658 -2.5,-8.88138 0,-6.90215 -0.007,-6.91923 -3.75,-9.28692 -21.67458,-13.7102 -25.22414,-46.15351 -7.05722,-64.50372 20.80588,-21.01578 56.93794,-11.52325 60.82549,15.97994 0.62924,4.45168 1.83752,7.27285 5.11758,11.9489 l 4.29385,6.12131 -2.28255,3.96601 c -1.76928,3.07419 -2.34072,5.78394 -2.54126,12.05057 -0.3234,10.10562 -3.30883,13.78395 -11.18741,13.78395 -11.13631,0 -10.83195,-1.38821 -11.41848,52.08067 l -0.5,45.58066 -3,4.82197 c -5.07748,8.16116 -11.64836,12.29749 -16.5,10.38665 z m -1.03777,-153.91059 c 2.06021,-1.76098 4.60412,-2.95936 6.28211,-2.95936 14.78769,0 18.6277,-14.58683 5.02208,-19.07709 -13.40687,-4.42466 -31.88028,7.80512 -24.69269,16.34708 1.33445,1.5859 2.42627,3.25751 2.42627,3.71468 0,0.7488 5.7813,4.78897 7,4.89184 0.275,0.0232 2.058,-1.2895 3.96223,-2.91715 z"
         id="path3087"
         inkscape:connector-curvature="0" />
      <path
         sodipodi:nodetypes="ssssssssssssssssssscsssssssssssss"
         style="fill:#5a5a8c;fill-opacity:1"
         d="m 238.57553,621.99431 c -6.31795,-3.8526 -9.06284,-11.28014 -5.39523,-14.59928 2.91182,-2.63516 2.46388,-5.0444 -1.5,-8.0678 -4.35914,-3.32487 -4.35914,-4.20716 0,-8.4322 1.925,-1.86578 3.5,-3.96815 3.5,-4.67192 0,-0.70377 -1.575,-2.7128 -3.5,-4.46451 -4.36627,-3.97321 -4.36627,-4.96546 0,-8.29577 1.925,-1.46827 3.5,-3.52378 3.5,-4.5678 0,-1.04402 -1.575,-3.09953 -3.5,-4.5678 -1.925,-1.46827 -3.5,-3.21886 -3.5,-3.89021 0,-0.67135 1.575,-2.65385 3.5,-4.40556 4.37609,-3.98215 4.37609,-5.29071 0,-9.27286 -4.36627,-3.97321 -4.36627,-4.96546 0,-8.29577 4.14247,-3.15962 4.4008,-5.37291 1,-8.5678 -2.13975,-2.01019 -2.5,-3.23263 -2.5,-8.48318 0,-6.79621 -0.74792,-8.16584 -6.24976,-11.44485 -23.23466,-13.84747 -21.05356,-55.49542 3.53532,-67.50688 21.49624,-10.50072 45.71165,0.19109 48.72559,21.51379 0.60996,4.31526 1.89224,7.36115 5.06718,12.03647 l 4.25058,6.25925 -2.22668,3.86893 c -1.72031,2.98911 -2.27686,5.70156 -2.44733,11.92768 -0.25005,9.13181 -2.07339,11.82381 -8.01568,11.83437 -6.09251,0.0108 -10.53892,1.90997 -12.38762,5.29098 -1.57356,2.87783 -1.80242,7.82822 -2.2516,48.70344 -0.56503,51.41807 -0.068,48.31148 -9.02472,56.40336 -4.53177,4.09419 -6.20677,4.36268 -10.58005,1.69592 z m 0.52212,-149.0108 c 1.97736,-2.11677 4.06588,-3.1076 7.6512,-3.62985 13.39823,-1.95165 18.65743,-10.43265 11.13453,-17.95555 -8.96398,-8.96399 -26.71082,-6.3168 -33.72375,5.03036 -3.56105,5.7619 -1.65733,10.39604 6.85038,16.67561 4.61396,3.40557 4.79627,3.40285 8.08764,-0.12057 z"
         id="path3085"
         inkscape:connector-curvature="0" />
    </g>
    <text
       xml:space="preserve"
       style="font-size:40px;font-style:normal;font-weight:normal;line-height:288.99991512%;letter-spacing:0px;word-spacing:0px;fill:#000000;fill-opacity:1;stroke:#5a5a8c;stroke-opacity:1;font-family:Sans"
       x="293.95441"
       y="548.04352"
       id="text3089"
       sodipodi:linespacing="288.99992%"><tspan
         sodipodi:role="line"
         id="tspan3091"
         x="293.95441"
         y="548.04352"
         style="font-size:48px;font-style:normal;font-variant:normal;font-weight:normal;font-stretch:normal;line-height:288.99991512%;stroke:#5a5a8c;stroke-opacity:1;font-family:Ubuntu;-inkscape-font-specification:Ubuntu">rlt-crwlr</tspan></text>
    <text
       xml:space="preserve"
       style="font-size:40px;font-style:normal;font-weight:normal;line-height:125%;letter-spacing:0px;word-spacing:0px;fill:#5a5a8c;fill-opacity:1;stroke:none;font-family:Sans"
       x="297.48993"
       y="566.73132"
       id="text3093"
       sodipodi:linespacing="125%"><tspan
         sodipodi:role="line"
         id="tspan3095"
         x="297.48993"
         y="566.73132"
         style="font-size:18px;font-weight:bold;fill:#5a5a8c;fill-opacity:1;-inkscape-font-specification:Sans Bold">realtors? really?</tspan></text>
  </g>
</svg>
